HIERARCHY
ROOT hip
{
	OFFSET 0.000000 0.000000 0.000000 
	CHANNELS 6 Xposition Yposition Zposition Xrotation Zrotation Yrotation
	JOINT abdomen
	{
		OFFSET 0.000000 3.402643 0.000000 
		CHANNELS 3 Xrotation Zrotation Yrotation
		JOINT chest
		{
			OFFSET 0.000000 8.438565 -0.680529 
			CHANNELS 3 Xrotation Zrotation Yrotation
			JOINT neck
			{
				OFFSET 0.000000 10.207942 -0.272212 
				CHANNELS 3 Xrotation Zrotation Yrotation
				JOINT head
				{
					OFFSET 0.000000 3.130431 0.000000 
					CHANNELS 3 Xrotation Zrotation Yrotation
					End Site
					{
						OFFSET 0.000000 3.130435 0.000000 
					}
				}
			}
			JOINT lCollar
			{
				OFFSET 3.470700 6.669187 -0.816635 
				CHANNELS 3 Yrotation Zrotation Xrotation
				JOINT lShldr
				{
					OFFSET 3.198488 0.000000 0.000000 
					CHANNELS 3 Zrotation Yrotation Xrotation
					JOINT lForeArm
					{
						OFFSET 10.139888 0.000000 0.000000 
						CHANNELS 3 Yrotation Zrotation Xrotation
						JOINT lHand
						{
							OFFSET 8.370511 0.000000 0.000000 
							CHANNELS 3 Zrotation Yrotation Xrotation
							End Site
							{
								OFFSET 4.083176 0.000000 0.000000 
							}
						}
					}
				}
			}
			JOINT rCollar
			{
				OFFSET -3.470700 6.669187 -0.816635 
				CHANNELS 3 Yrotation Zrotation Xrotation
				JOINT rShldr
				{
					OFFSET -3.198488 0.000000 0.000000 
					CHANNELS 3 Zrotation Yrotation Xrotation
					JOINT rForeArm
					{
						OFFSET -10.139888 0.000000 0.000000 
						CHANNELS 3 Yrotation Zrotation Xrotation
						JOINT rHand
						{
							OFFSET -8.370511 0.000000 0.000000 
							CHANNELS 3 Zrotation Yrotation Xrotation
							End Site
							{
								OFFSET -4.083176 0.000000 0.000000 
							}
						}
					}
				}
			}
		}
	}
	JOINT lThigh
	{
		OFFSET 5.308129 -1.633274 1.361059 
		CHANNELS 3 Xrotation Zrotation Yrotation
		JOINT lShin
		{
			OFFSET -2.041588 -20.007561 0.000000 
			CHANNELS 3 Xrotation Zrotation Yrotation
			JOINT lFoot
			{
				OFFSET 0.000000 -19.190928 -1.224953 
				CHANNELS 3 Xrotation Yrotation Zrotation
				End Site
				{
					OFFSET 0.000000 -2.449906 4.627600 
				}
			}
		}
	}
	JOINT rThigh
	{
		OFFSET -5.308129 -1.633274 1.361059 
		CHANNELS 3 Xrotation Zrotation Yrotation
		JOINT rShin
		{
			OFFSET 2.041588 -20.007561 0.000000 
			CHANNELS 3 Xrotation Zrotation Yrotation
			JOINT rFoot
			{
				OFFSET 0.000000 -19.190928 -1.224953 
				CHANNELS 3 Xrotation Yrotation Zrotation
				End Site
				{
					OFFSET 0.000000 -2.449906 4.627600 
				}
			}
		}
	}
}
MOTION
Frames: 19
Frame Time: 0.050000
0.000000 53.498543 0.305648 5.627470 0.628675 2.030900 23.640596 6.232469 10.251698 19.432800 -0.649805 9.354019 7.999999 0.000000 -3.000000 13.120399 1.366530 -9.091118 26.917995 21.425798 2.626950 -74.525032 19.000000 56.999996 -88.053642 6.569099 15.136298 0.000000 0.000000 0.000000 8.999998 -3.427280 -2.382250 62.005192 26.999994 -9.999999 42.728813 26.420383 -25.172623 0.000000 0.000000 0.000000 -47.561298 -0.297489 -8.104388 85.647507 0.538639 -6.426939 2.455140 -10.215597 0.153396 -7.619319 2.436039 7.043869 5.089003 0.000000 0.000000 57.175724 0.000000 0.000000 
0.000000 53.498543 0.305648 5.627470 0.628675 2.030900 23.640596 6.232469 10.251698 19.432800 -0.649805 9.354019 7.999999 0.000000 -3.000000 13.120399 1.366530 -9.091118 26.917995 21.425798 2.626950 -74.422798 19.000000 56.999996 -88.014824 6.569099 15.136298 0.000000 0.000000 0.000000 8.999998 -3.427280 -2.382250 61.870296 26.999994 -9.999999 42.859310 26.419523 -25.171499 0.000000 0.000000 0.000000 -47.313801 -0.297489 -8.104388 85.342751 0.538639 -6.426939 2.455140 -10.215597 0.153396 -7.619319 2.436039 7.043869 4.903723 0.000000 0.000000 57.175724 0.000000 0.000000 
0.000000 53.498543 0.305648 5.627470 0.628675 2.030900 23.640596 6.232469 10.251698 19.432800 -0.649805 9.354019 7.999999 0.000000 -3.000000 13.120399 1.366530 -9.091118 26.917995 21.425798 2.626950 -74.284309 19.000000 56.999996 -87.916855 6.569099 15.136298 0.000000 0.000000 0.000000 8.999998 -3.427280 -2.382250 61.619480 26.999994 -9.999999 42.931770 26.421528 -25.174120 0.000000 0.000000 0.000000 -47.137344 -0.297489 -8.104388 85.111404 0.538639 -6.426939 2.455140 -10.215597 0.153396 -7.619319 2.436039 7.043869 4.629477 0.000000 0.000000 57.175724 0.000000 0.000000 
0.000000 53.498543 0.305648 5.627470 0.628675 2.030900 23.640596 6.232469 10.251698 19.432800 -0.649805 9.354019 7.999999 0.000000 -3.000000 13.120399 1.366530 -9.091118 26.917994 21.425798 2.626950 -74.145813 19.000000 56.999996 -87.818893 6.569098 15.136298 0.000000 0.000000 0.000000 8.999998 -3.427280 -2.382250 61.368668 26.999994 -9.999999 43.004234 26.423534 -25.176743 0.000000 0.000000 0.000000 -46.960888 -0.297489 -8.104388 84.880066 0.538639 -6.426939 2.455139 -10.215597 0.153396 -7.619319 2.436039 7.043869 4.355230 0.000000 0.000000 57.175724 0.000000 0.000000 
0.000000 53.498543 0.305648 5.627470 0.628675 2.030900 23.640594 6.232469 10.251698 19.432798 -0.649805 9.354018 7.999999 0.000000 -3.000000 13.120399 1.366530 -9.091117 26.917994 21.425797 2.626950 -74.007324 18.999998 56.999992 -87.720924 6.569098 15.136297 0.000000 0.000000 0.000000 8.999997 -3.427279 -2.382250 61.117851 26.999992 -9.999998 43.076694 26.425539 -25.179363 0.000000 0.000000 0.000000 -46.784431 -0.297489 -8.104387 84.648727 0.538639 -6.426939 2.455139 -10.215596 0.153396 -7.619319 2.436039 7.043869 4.080983 0.000000 0.000000 57.175720 0.000000 0.000000 
0.000000 53.498543 0.305648 5.627470 0.628675 2.030899 23.640594 6.232469 10.251698 19.432798 -0.649805 9.354018 7.999999 0.000000 -3.000000 13.120399 1.366530 -9.091117 26.917994 21.425797 2.626949 -73.868835 18.999998 56.999992 -87.622955 6.569098 15.136297 0.000000 0.000000 0.000000 8.999997 -3.427279 -2.382249 60.867039 26.999992 -9.999998 43.149158 26.427544 -25.181986 0.000000 0.000000 0.000000 -46.607975 -0.297489 -8.104387 84.417381 0.538639 -6.426939 2.455138 -10.215596 0.153396 -7.619319 2.436039 7.043869 3.806737 0.000000 0.000000 57.175720 0.000000 0.000000 
0.000000 53.498543 0.305648 5.627470 0.628675 2.030899 23.640594 6.232468 10.251698 19.432798 -0.649805 9.354018 7.999998 0.000000 -3.000000 13.120398 1.366530 -9.091117 26.917992 21.425797 2.626949 -73.730347 18.999998 56.999992 -87.524994 6.569098 15.136297 0.000000 0.000000 0.000000 8.999997 -3.427279 -2.382249 60.616222 26.999992 -9.999998 43.221619 26.429550 -25.184607 0.000000 0.000000 0.000000 -46.431519 -0.297489 -8.104387 84.186035 0.538639 -6.426939 2.455138 -10.215596 0.153396 -7.619319 2.436039 7.043868 3.532490 0.000000 0.000000 57.175720 0.000000 0.000000 
0.000000 53.498543 0.305648 5.627470 0.628675 2.030899 23.640594 6.232468 10.251698 19.432798 -0.649805 9.354018 7.999998 0.000000 -3.000000 13.120398 1.366530 -9.091117 26.917992 21.425797 2.626949 -73.607079 18.999998 56.999992 -87.425102 6.569098 15.136297 0.000000 0.000000 0.000000 8.999997 -3.427279 -2.382249 60.373947 26.999992 -9.999998 43.256931 26.432222 -25.188099 0.000000 0.000000 0.000000 -46.318893 -0.297489 -8.104387 84.030907 0.538639 -6.426939 2.455138 -10.215596 0.153396 -7.619319 2.436039 7.043868 3.251495 0.000000 0.000000 57.175720 0.000000 0.000000 
0.000000 53.498543 0.305648 5.627470 0.628675 2.030899 23.640594 6.232469 10.251698 19.432798 -0.649805 9.354018 7.999999 0.000000 -3.000000 13.120399 1.366530 -9.091118 26.917992 21.425797 2.626949 -73.493340 18.999998 56.999992 -87.324020 6.569098 15.136297 0.000000 0.000000 0.000000 8.999998 -3.427279 -2.382249 60.137009 26.999992 -9.999998 43.269028 26.435310 -25.192137 0.000000 0.000000 0.000000 -46.246159 -0.297489 -8.104387 83.923409 0.538639 -6.426939 2.455138 -10.215597 0.153396 -7.619319 2.436039 7.043869 2.966281 0.000000 0.000000 57.175724 0.000000 0.000000 
0.000000 53.498543 0.305648 5.627470 0.628675 2.030900 23.640594 6.232469 10.251698 19.432798 -0.649805 9.354018 7.999999 0.000000 -3.000000 13.120399 1.366530 -9.091118 26.917992 21.425797 2.626950 -73.379593 18.999998 56.999992 -87.222931 6.569098 15.136297 0.000000 0.000000 0.000000 8.999998 -3.427279 -2.382250 59.900070 26.999992 -9.999998 43.281124 26.438398 -25.196173 0.000000 0.000000 0.000000 -46.173424 -0.297489 -8.104387 83.815910 0.538639 -6.426939 2.455137 -10.215597 0.153396 -7.619319 2.436039 7.043869 2.681067 0.000000 0.000000 57.175724 0.000000 0.000000 
0.000000 53.498543 0.305648 5.627470 0.628675 2.030900 23.640596 6.232469 10.251698 19.432798 -0.649805 9.354018 7.999999 0.000000 -3.000000 13.120399 1.366530 -9.091118 26.917994 21.425797 2.626950 -73.265854 18.999998 56.999992 -87.121849 6.569098 15.136298 0.000000 0.000000 0.000000 8.999998 -3.427279 -2.382250 59.663132 26.999994 -9.999998 43.293221 26.441488 -25.200211 0.000000 0.000000 0.000000 -46.100689 -0.297489 -8.104388 83.708412 0.538639 -6.426939 2.455137 -10.215597 0.153396 -7.619319 2.436039 7.043869 2.395853 0.000000 0.000000 57.175728 0.000000 0.000000 
0.000000 53.498543 0.305648 5.627470 0.628675 2.030900 23.640596 6.232469 10.251698 19.432798 -0.649805 9.354018 7.999999 0.000000 -3.000000 13.120399 1.366530 -9.091119 26.917994 21.425797 2.626950 -73.152107 18.999998 56.999992 -87.020760 6.569099 15.136298 0.000000 0.000000 0.000000 8.999999 -3.427279 -2.382250 59.426193 26.999994 -9.999998 43.305317 26.444576 -25.204247 0.000000 0.000000 0.000000 -46.027958 -0.297489 -8.104388 83.600914 0.538639 -6.426939 2.455137 -10.215598 0.153396 -7.619319 2.436039 7.043869 2.110639 0.000000 0.000000 57.175732 0.000000 0.000000 
0.000000 53.498543 0.305648 5.627470 0.628675 2.030900 23.640596 6.232469 10.251698 19.432798 -0.649805 9.354018 7.999999 0.000000 -3.000000 13.120399 1.366530 -9.091119 26.917994 21.425797 2.626950 -73.058151 18.999998 56.999992 -86.931885 6.569099 15.136298 0.000000 0.000000 0.000000 8.999999 -3.427279 -2.382250 59.222412 26.999994 -9.999998 43.302944 26.447504 -25.208073 0.000000 0.000000 0.000000 -45.986702 -0.297489 -8.104388 83.533630 0.538639 -6.426939 2.455137 -10.215598 0.153396 -7.619319 2.436039 7.043869 1.840894 0.000000 0.000000 57.175732 0.000000 0.000000 
0.000000 53.498543 0.305648 5.627470 0.628675 2.030900 23.640596 6.232469 10.251698 19.432798 -0.649805 9.354018 7.999999 0.000000 -3.000000 13.120399 1.366530 -9.091119 26.917994 21.425797 2.626950 -73.030167 18.999998 56.999992 -86.883698 6.569099 15.136298 0.000000 0.000000 0.000000 8.999999 -3.427279 -2.382250 59.129139 26.999994 -9.999998 43.252346 26.449892 -25.211193 0.000000 0.000000 0.000000 -46.050369 -0.297489 -8.104388 83.600395 0.538639 -6.426939 2.455137 -10.215598 0.153396 -7.619319 2.436039 7.043869 1.622712 0.000000 0.000000 57.175735 0.000000 0.000000 
0.000000 53.498543 0.305648 5.627470 0.628675 2.030900 23.640596 6.232470 10.251698 19.432798 -0.649805 9.354018 8.000000 0.000000 -3.000000 13.120399 1.366530 -9.091119 26.917995 21.425797 2.626950 -73.002174 18.999998 56.999992 -86.835510 6.569099 15.136298 0.000000 0.000000 0.000000 8.999999 -3.427279 -2.382250 59.035870 26.999994 -9.999998 43.201744 26.452280 -25.214314 0.000000 0.000000 0.000000 -46.114040 -0.297489 -8.104389 83.667160 0.538639 -6.426939 2.455137 -10.215598 0.153396 -7.619319 2.436039 7.043869 1.404530 0.000000 0.000000 57.175739 0.000000 0.000000 
0.000000 53.498543 0.305648 5.627470 0.628675 2.030900 23.640598 6.232470 10.251699 19.432798 -0.649805 9.354019 8.000000 0.000000 -3.000000 13.120399 1.366530 -9.091120 26.917995 21.425798 2.626950 -72.974182 18.999998 56.999996 -86.787331 6.569099 15.136299 0.000000 0.000000 0.000000 9.000000 -3.427279 -2.382250 58.942596 26.999996 -9.999999 43.151146 26.454668 -25.217436 0.000000 0.000000 0.000000 -46.177708 -0.297489 -8.104389 83.733932 0.538639 -6.426939 2.455137 -10.215599 0.153396 -7.619319 2.436039 7.043869 1.186348 0.000000 0.000000 57.175739 0.000000 0.000000 
0.000000 53.498543 0.305648 5.627470 0.628675 2.030900 23.640598 6.232470 10.251699 19.432798 -0.649805 9.354019 8.000000 0.000000 -3.000000 13.120399 1.366530 -9.091120 26.917997 21.425798 2.626950 -72.946190 18.999998 56.999996 -86.739143 6.569099 15.136299 0.000000 0.000000 0.000000 9.000000 -3.427280 -2.382250 58.849327 26.999996 -9.999999 43.100548 26.457056 -25.220556 0.000000 0.000000 0.000000 -46.241379 -0.297489 -8.104390 83.800697 0.538639 -6.426939 2.455136 -10.215599 0.153396 -7.619319 2.436040 7.043869 0.968166 0.000000 0.000000 57.175743 0.000000 0.000000 
0.000000 53.498543 0.305648 5.627470 0.628675 2.030900 23.640598 6.232470 10.251700 19.432798 -0.649805 9.354019 8.000000 0.000000 -3.000000 13.120399 1.366530 -9.091120 26.917997 21.425798 2.626950 -72.918198 18.999998 56.999996 -86.690964 6.569099 15.136299 0.000000 0.000000 0.000000 9.000000 -3.427280 -2.382250 58.756058 26.999996 -9.999999 43.049950 26.459444 -25.223677 0.000000 0.000000 0.000000 -46.305046 -0.297489 -8.104390 83.867470 0.538639 -6.426939 2.455136 -10.215599 0.153396 -7.619319 2.436040 7.043869 0.749985 0.000000 0.000000 57.175747 0.000000 0.000000 
0.000000 53.498543 0.305648 5.627470 0.628675 2.030900 23.640598 6.232470 10.251700 19.432798 -0.649805 9.354019 8.000000 0.000000 -3.000000 13.120399 1.366530 -9.091120 26.917997 21.425798 2.626950 -72.993912 18.999998 56.999996 -86.718544 6.569099 15.136299 0.000000 0.000000 0.000000 9.000000 -3.427280 -2.382250 58.854214 26.999996 -9.999999 42.950611 26.460163 -25.224615 0.000000 0.000000 0.000000 -46.492439 -0.297489 -8.104390 84.097855 0.538639 -6.426939 2.455136 -10.215599 0.153396 -7.619319 2.436040 7.043869 0.633816 0.000000 0.000000 57.175747 0.000000 0.000000 
